<svg width="15" height="13" viewBox="0 0 15 13" fill="none" xmlns="http://www.w3.org/2000/svg">
<path d="M2.99811 4.7467L3.43298 5.50772C3.70983 5.9922 3.84825 6.23444 3.84825 6.5C3.84825 6.76556 3.70983 7.0078 3.43299 7.49227L3.43298 7.49228L2.99811 8.2533C1.75981 10.4203 1.14066 11.5039 1.62348 12.0412C2.1063 12.5785 3.24961 12.0783 5.53623 11.0779L11.8119 8.33231C13.6074 7.54678 14.5051 7.15402 14.5051 6.5C14.5051 5.84598 13.6074 5.45322 11.8119 4.66769L5.53624 1.9221C3.24962 0.921707 2.1063 0.421508 1.62348 0.958828C1.14066 1.49615 1.75981 2.57966 2.99811 4.7467Z" stroke="#F3EEE1"/>
</svg>
